<svg xmlns="http://www.w3.org/2000/svg" width="256" height="256" viewBox="0 0 100 100"><rect width="100" height="100" rx="20" fill="#f2c1c1"></rect><path d="M70.81 57.92L70.81 57.92Q70.81 62.41 69.45 66.02Q68.08 69.62 65.40 72.18Q62.72 74.73 58.84 76.14Q54.97 77.54 49.96 77.54L49.96 77.54Q44.94 77.54 41.07 76.14Q37.20 74.73 34.56 72.18Q31.92 69.62 30.55 66.02Q29.19 62.41 29.19 57.92L29.19 57.92L29.19 23.07Q29.63 22.90 30.55 22.68Q31.48 22.46 32.53 22.46L32.53 22.46Q36.32 22.46 36.32 25.71L36.32 25.71L36.32 57.30Q36.32 60.82 37.37 63.46Q38.43 66.10 40.23 67.91Q42.04 69.71 44.54 70.59Q47.05 71.47 49.96 71.47L49.96 71.47Q52.86 71.47 55.37 70.59Q57.88 69.71 59.68 67.91Q61.48 66.10 62.54 63.46Q63.60 60.82 63.60 57.30L63.60 57.30L63.60 23.07Q64.04 22.90 64.96 22.68Q65.88 22.46 66.94 22.46L66.94 22.46Q70.81 22.46 70.81 25.71L70.81 25.71L70.81 57.92Z" fill="#000000"></path></svg>